<?xml version="1.0" encoding="utf-8"?>
<!-- Generator: Adobe Illustrator 19.1.0, SVG Export Plug-In . SVG Version: 6.00 Build 0)  -->
<svg version="1.1" xmlns="http://www.w3.org/2000/svg" xmlns:xlink="http://www.w3.org/1999/xlink" x="0px" y="0px"
	 viewBox="0 0 290.7 354" style="enable-background:new 0 0 290.7 354;" xml:space="preserve">
<style type="text/css">
	.st0{fill:#2F1944;}
	.st1{fill:#75C044;}
	.st2{display:none;}
	.st3{display:inline;fill:none;stroke:#C8C8C8;stroke-miterlimit:10;stroke-dasharray:12;}
</style>
<g id="Layer_3">
</g>
<g id="Layer_1">
	<g>
		<g>
			<path class="st0" d="M270.6,127.3l-1.1-58.5l-0.3-16.1l-16.1,0c-19.5,0-41.2-3.9-62.8-11.1C176.8,37,164,31.4,152.4,24.8
				l-8.4-4.8l-8.2,5.1c-11.4,7-23.9,13.1-37.2,18.2C77.1,51.4,55.6,56,36.1,56.8L20,57.4l0.3,16.1l1.1,58.5
				c1.6,82.5,47.7,158.2,120.3,197.6l8.2,4.4l8-4.7C229,287.2,272.2,209.7,270.6,127.3 M149.5,315.4C84.2,280,39.3,211.5,37.8,131.9
				l-1.1-58.5c20.4-0.8,43.8-5.5,67.6-14.6c14.7-5.5,28.1-12.2,40-19.6c12.2,6.9,25.9,13,40.7,18c24.1,8.1,47.6,12,68.1,12l1.1,58.5
				C255.7,207.4,213.4,277.6,149.5,315.4z"/>
			<path class="st0" d="M221.6,214.5c-0.2,0.4-0.4,0.9-0.6,1.4c-0.7,1.5-1.4,3-2.2,4.5c-0.4,0.8-0.8,1.6-1.2,2.3
				c-0.3,0.6-0.7,1.3-1,1.9c-0.8,1.5-1.6,3.1-2.5,4.6c-12.8,22.4-30,42-50.4,57.6c0,0-0.1,0.1-0.1,0.1c-1.4,1.1-2.9,2.2-4.4,3.2
				c-0.1,0.1-0.3,0.2-0.4,0.3c-1.6,1.1-3.2,2.3-4.8,3.4c-1.6,1.1-3.3,2.2-5,3.2c-27.6-15.8-50.9-38.3-67.7-65.3
				c-0.9-1.5-1.8-3-2.7-4.5c-0.3-0.6-0.7-1.2-1-1.8c-0.6-1.1-1.3-2.3-1.9-3.4c-0.6-1-1.1-2.1-1.7-3.1c0-0.1-0.1-0.1-0.1-0.2h0
				c-0.2-0.4-0.4-0.8-0.6-1.2c-13-25.7-20.2-54.1-20.7-83.2l-0.9-47c18.5-1.6,38.4-6.3,57.9-13.7c12.3-4.7,24-10.2,34.8-16.6
				c11.1,5.9,23,11,35.4,15.2c19.8,6.7,39.8,10.6,58.4,11.5l0.9,47C239.6,159.8,233.6,188.4,221.6,214.5z"/>
		</g>
		<path class="st1" d="M239.1,130.8l-0.1-7.1L77.5,225.4c0,0,0,0,0,0c0.3,0.6,0.7,1.2,1,1.8c0.9,1.5,1.8,3,2.7,4.5
			c6.3,10.1,13.4,19.5,21.4,28.2l131.7-83C237.7,161.9,239.4,146.4,239.1,130.8z"/>
	</g>
</g>
<g id="Layer_2">
</g>
<g id="specctr" class="st2">
	<rect id="Specctr_Canvas_Border_Artboard_15" x="20" y="20" class="st3" width="250.7" height="314"/>
</g>
</svg>
