<?xml version="1.0" encoding="utf-8"?>
<!-- Generator: Adobe Illustrator 19.1.0, SVG Export Plug-In . SVG Version: 6.00 Build 0)  -->
<svg version="1.1" id="Layer_1" xmlns="http://www.w3.org/2000/svg" xmlns:xlink="http://www.w3.org/1999/xlink" x="0px" y="0px"
	 viewBox="-339 99.4 280.7 363.6" style="enable-background:new -339 99.4 280.7 363.6;" xml:space="preserve">
<style type="text/css">
	.st0{fill:#2F1944;}
	.st1{display:none;}
	.st2{display:inline;fill:none;stroke:#C8C8C8;stroke-miterlimit:10;stroke-dasharray:12;}
	.st3{fill:#94C750;}
</style>
<g id="Layer_3">
</g>
<g id="Layer_1_1_">
	<path class="st0" d="M-89.6,240.8h-13.3h-19.8v-49.7c0-39.4-32.3-71.7-71.7-71.7h-8.5c-39.4,0-71.7,32.3-71.7,71.7v49.7h-19.8
		h-13.3c-6.8,0-11.8,5.5-11.3,12.3l1.1,13.2l0,0l8.2,95.8l4.1,48.7l0,0l0.6,6.8c1.2,14,13.7,25.5,27.8,25.5h157
		c14.1,0,26.6-11.5,27.8-25.5l12.9-151.2l0,0l1.1-13.2C-77.8,246.3-82.9,240.8-89.6,240.8z M-243.9,191.1c0-22.6,18.4-41,41-41h8.5
		c22.6,0,41,18.4,41,41v49.7h-90.5V191.1z M-177.9,387.6c1,4.7-2.2,8.5-6.9,8.5l-27.7-0.1c-4.8,0-7.9-3.9-6.9-8.5l11.1-54.1
		c-7.6-3.6-13-11.4-13-20.4c0-12.5,10.1-22.6,22.6-22.6s22.6,10.1,22.6,22.6c0,9-5.3,16.8-13,20.4L-177.9,387.6z"/>
</g>
<g id="Layer_2">
</g>
<g id="specctr" class="st1">
	<rect id="Specctr_Canvas_Border_Artboard_23" x="-319" y="119.4" class="st2" width="240.7" height="323.6"/>
</g>
<path class="st3" d="M-319,253.1l1.1,13.2l0.5,5.4H-80l0.5-5.3l1.1-13.2c0.6-6.9-4.5-12.4-11.2-12.4h-13.3h-19.8h-30.7h-90.5h-30.7
	h-19.8h-13.3C-314.5,240.8-319.5,246.3-319,253.1z"/>
</svg>
